<svg xmlns="http://www.w3.org/2000/svg" viewBox="0 0 512 512" width="512" height="512">
<defs><radialGradient id="g" cx="50%" cy="38%" r="70%"><stop offset="0" stop-color="#2A3B4A"/><stop offset="1" stop-color="#141E27"/></radialGradient></defs>
<rect width="512" height="512" fill="url(#g)"/>
<circle cx="256" cy="262" r="178" fill="none" stroke="#C9A15B" stroke-opacity=".35" stroke-width="3"/>
<g transform="translate(256 250) scale(3.1) translate(-60 -50)">
<path d="M46 74 L60 92 L74 74 Z" fill="#F3EEE3"/>
<path d="M29 36 L31 5 L53 22 Z M91 36 L89 5 L67 22 Z" fill="#D98C45"/>
<path d="M34 29 L35 12 L47 22 Z M86 29 L85 12 L73 22 Z" fill="#E9B48A"/>
<ellipse cx="60" cy="46" rx="33" ry="28" fill="#D98C45"/>
<path d="M29 50 Q33 75 60 77 Q87 75 91 50 Q78 60 60 58 Q42 60 29 50 Z" fill="#F6EBD9"/>
<ellipse cx="60" cy="61" rx="14" ry="10" fill="#F6EBD9"/>
<ellipse cx="46" cy="35" rx="4" ry="2.4" fill="#F6EBD9"/><ellipse cx="74" cy="35" rx="4" ry="2.4" fill="#F6EBD9"/>
<circle cx="46" cy="45" r="4.2" fill="#231A15"/><circle cx="47.4" cy="43.6" r="1.3" fill="#fff"/>
<circle cx="74" cy="45" r="4.2" fill="#231A15"/><circle cx="75.4" cy="43.6" r="1.3" fill="#fff"/>
<ellipse cx="37" cy="55" rx="4.5" ry="2.6" fill="#E9A27A" opacity=".45"/><ellipse cx="83" cy="55" rx="4.5" ry="2.6" fill="#E9A27A" opacity=".45"/>
<ellipse cx="60" cy="55.5" rx="4.4" ry="3.2" fill="#231A15"/>
<path d="M60 58.5 v3.2 M60 61.7 Q56.5 65.5 53 62.5 M60 61.7 Q63.5 65.5 67 62.5" stroke="#231A15" stroke-width="1.5" stroke-linecap="round" fill="none"/>
<path d="M50 80 L60 84 L50 89 Z M70 80 L60 84 L70 89 Z" fill="#9C3B32"/><circle cx="60" cy="84.5" r="2.6" fill="#7E2E27"/>
</g>
</svg>
